# xmcd
#
# Track frame offsets: 
#        150
#        14038
#        30155
#        46207
#        63317
#        96499
#        127824
#        164799
#        206192
#        235875
#        267709
#        285662
#        319256
#
# Disc length: 4792 seconds
#
# Revision: 0
# Processed by: cddbd v1.5.2PL0 Copyright (c) Steve Scherf et al.
# Submitted via: ExactAudioCopy v0.95b4
#
DISCID=c312b60d
DTITLE=Various Artist - Pulsive Midem Sampler Vol. 2
DYEAR=2004
DGENRE=
TTITLE0=Boo Selecta - F*** u up! (nobody listen to hip hop) (original 
TTITLE0=mix)
TTITLE1=Commander Tom - Are am eye? (lazard video edit)
TTITLE2=Bubbleheadz - Young (edit)
TTITLE3=Boo Selecta - F*** u up! (nobody listen to hip hop) (ray know 
TTITLE3=edit)
TTITLE4=DJ Matys and D-Gor - Orgasm (original club mix)
TTITLE5=Commander Tom - Are am eye? 2.4 (Mirko Milano rmx)
TTITLE6=Fragrance - Don´t break my heart (steve murano mix)
TTITLE7=Bubbleheadz - Young (Original Club Mix)
TTITLE8=Boo Selecta - F*** u up! (nobody listen to hip hop) (mirko mil
TTITLE8=ano mix)
TTITLE9=Commander Tom - Are am eye? 2.4 (reloop and kaylab rmx)
TTITLE10=Nebulus - Destination paradise (edit)
TTITLE11=Nebulus - Destination paradise (Ozone mix)
TTITLE12=Nebulus - Destination paradise (Alphazone original club)
EXTD=
EXTT0=
EXTT1=
EXTT2=
EXTT3=
EXTT4=
EXTT5=
EXTT6=
EXTT7=
EXTT8=
EXTT9=
EXTT10=
EXTT11=
EXTT12=
PLAYORDER=
